<?xml version="1.0" standalone="no"?><!DOCTYPE svg PUBLIC "-//W3C//DTD SVG 1.1//EN" "http://www.w3.org/Graphics/SVG/1.1/DTD/svg11.dtd"><svg width="100%" height="100%" viewBox="0 0 764 738" version="1.1" xmlns="http://www.w3.org/2000/svg" xmlns:xlink="http://www.w3.org/1999/xlink" xml:space="preserve" style="fill-rule:evenodd;clip-rule:evenodd;stroke-linejoin:round;stroke-miterlimit:1.41421;"><g><g><g><g><path d="M257.608,208.157c50.132,-26.729 71.275,17.347 125.284,16.9c55.141,-0.457 47.371,-21.232 106.465,5.106l185.85,321.709l-606.414,0l188.815,-343.715Z" style="fill:#fff;"/><path d="M349.392,249.75c50.333,0.322 90.936,41.448 90.613,91.782c-0.322,50.333 -41.448,90.936 -91.782,90.613c-50.333,-0.322 -90.936,-41.448 -90.613,-91.782c0.322,-50.333 41.448,-90.936 91.782,-90.613Z" style="fill:#fff;"/><path d="M244.854,407.837c34.506,0.221 62.34,28.414 62.119,62.919c-0.221,34.506 -28.414,62.34 -62.92,62.119c-34.505,-0.221 -62.34,-28.414 -62.118,-62.92c0.221,-34.505 28.414,-62.34 62.919,-62.118Z" style="fill:#fff;"/><path d="M634.45,466.733l-217.978,-0.353l-0.059,19.71l217.978,0.353l0.059,-19.71Z" style="fill:#fff;fill-opacity:0.67451;"/><path d="M597.359,409.039l-180.887,-0.293l-0.057,18.981l180.887,0.293l0.057,-18.981Z" style="fill:#fff;fill-opacity:0.67451;"/><path d="M562.3,344.63l-145.828,-0.236l-0.059,19.931l145.828,0.237l0.059,-19.932Z" style="fill:#fff;fill-opacity:0.67451;"/><path d="M546.943,27.8c9.955,0.001 18.036,8.082 18.036,18.036l0,36.073c0,9.954 -8.082,18.036 -18.036,18.036l-85.979,0c0.123,1.345 0.186,2.708 0.186,4.086l0,72.323l214.057,375.518l-606.414,0l214.057,-375.518l0,-72.323c0,-1.378 0.063,-2.741 0.186,-4.086l-85.979,0c-9.954,0 -18.036,-8.082 -18.036,-18.036l0,-36.073c0,-9.954 8.081,-18.035 18.036,-18.036l349.886,0Z" style="fill:#fff;stroke-width:32px;stroke:#000;"/><path d="M278.354,92.483l193.099,0.026" style="fill:#fff;stroke-width:17px;stroke:#000;"/></g><g><path d="M257.608,208.157c50.132,-26.729 71.275,17.347 125.284,16.9c55.141,-0.457 47.371,-21.232 106.465,5.106l185.85,321.709l-606.414,0l188.815,-343.715Z" style="fill:#685273;"/><path d="M349.392,249.75c50.333,0.322 90.936,41.448 90.613,91.782c-0.322,50.333 -41.448,90.936 -91.782,90.613c-50.333,-0.322 -90.936,-41.448 -90.613,-91.782c0.322,-50.333 41.448,-90.936 91.782,-90.613Z" style="fill:#fff;"/><path d="M244.854,407.837c34.506,0.221 62.34,28.414 62.119,62.919c-0.221,34.506 -28.414,62.34 -62.92,62.119c-34.505,-0.221 -62.34,-28.414 -62.118,-62.92c0.221,-34.505 28.414,-62.34 62.919,-62.118Z" style="fill:#fff;"/><path d="M634.45,466.733l-217.978,-0.353l-0.059,19.71l217.978,0.353l0.059,-19.71Z" style="fill:#000;fill-opacity:0.67451;"/><path d="M597.359,409.039l-180.887,-0.293l-0.057,18.981l180.887,0.293l0.057,-18.981Z" style="fill:#000;fill-opacity:0.67451;"/><path d="M562.3,344.63l-145.828,-0.236l-0.059,19.931l145.828,0.237l0.059,-19.932Z" style="fill:#000;fill-opacity:0.67451;"/><path d="M546.943,27.8c9.955,0.001 18.036,8.082 18.036,18.036l0,36.073c0,9.954 -8.082,18.036 -18.036,18.036l-85.979,0c0.123,1.345 0.186,2.708 0.186,4.086l0,72.323l214.057,375.518l-606.414,0l214.057,-375.518l0,-72.323c0,-1.378 0.063,-2.741 0.186,-4.086l-85.979,0c-9.954,0 -18.036,-8.082 -18.036,-18.036l0,-36.073c0,-9.954 8.081,-18.035 18.036,-18.036l349.886,0Z" style="fill:none;stroke-width:32px;stroke:#000;"/><path d="M278.354,92.483l193.099,0.026" style="fill:none;stroke-width:17px;stroke:#000;"/></g></g></g><text x="-16.336px" y="735.103px" style="font-family:'OpenSans-Extrabold';font-size:206.187px;fill:#fff;stroke-width:1px;stroke:#000;">B<tspan x="128.451px 261.277px 395.152px 532.49px 665.316px " y="735.103px 735.103px 735.103px 735.103px 735.103px ">eaker</tspan></text></g></svg>