<?xml version="1.0" standalone="no"?><!DOCTYPE svg PUBLIC "-//W3C//DTD SVG 1.1//EN" "http://www.w3.org/Graphics/SVG/1.1/DTD/svg11.dtd"><svg width="100%" height="100%" viewBox="0 0 564 595" version="1.1" xmlns="http://www.w3.org/2000/svg" xmlns:xlink="http://www.w3.org/1999/xlink" xml:space="preserve" style="fill-rule:evenodd;clip-rule:evenodd;stroke-linecap:round;stroke-linejoin:round;stroke-miterlimit:1.41421;"><g><path d="M94.865,536.883c-11.292,-8.211 -60.308,-56.59 -64.058,-82.229c-2.966,-18.671 36.535,-4.004 91.847,-33.321c26.808,9.984 62.82,-11.55 83.563,-23.243c33.173,10.781 79.748,-9.183 100.38,-27.016c48.913,-21.819 56.526,-50.39 56.526,-50.39c0,0 47.199,94.026 -18.225,185.819c-58.547,82.146 -177.238,83.315 -250.033,30.38Z" style="fill:#644e70;"/><path d="M498.672,172.518l-124.879,154.107c22.22,58.812 13.508,127.551 -28.895,179.878c-63.508,78.373 -178.698,90.441 -257.071,26.933c-78.372,-63.509 -90.44,-178.698 -26.932,-257.071c42.402,-52.327 107.844,-75.097 169.983,-65.549l124.879,-154.107" style="fill:none;stroke-width:18.74px;stroke:#000;"/><path d="M302.681,540.466l-127.868,-103.819l-12.753,15.707l127.869,103.819l12.752,-15.707Z" style="fill:#000;fill-opacity:0.498039;"/><path d="M394.792,426.171l-127.869,-103.819l-12.753,15.707l127.869,103.819l12.753,-15.707Z" style="fill:#000;fill-opacity:0.498039;"/><path d="M207.383,519.789c7.392,0.048 13.355,6.088 13.308,13.48c-0.047,7.392 -6.087,13.355 -13.479,13.308c-7.393,-0.048 -13.356,-6.088 -13.308,-13.48c0.047,-7.392 6.087,-13.355 13.479,-13.308Z" style="fill:#ebebeb;fill-opacity:0.380392;stroke-width:3px;stroke-linecap:square;stroke:#000;"/><path d="M218.356,427.499c7.392,0.048 13.355,6.088 13.308,13.48c-0.048,7.392 -6.087,13.355 -13.48,13.308c-7.392,-0.048 -13.355,-6.088 -13.307,-13.48c0.047,-7.392 6.087,-13.355 13.479,-13.308Z" style="fill:#ebebeb;fill-opacity:0.164706;stroke-width:3px;stroke-linecap:square;stroke:#000;"/><path d="M276.935,464.732c7.392,0.047 13.355,6.087 13.307,13.479c-0.047,7.392 -6.087,13.355 -13.479,13.308c-7.392,-0.047 -13.355,-6.087 -13.308,-13.48c0.048,-7.392 6.087,-13.355 13.48,-13.307Z" style="fill:#ebebeb;fill-opacity:0.819608;stroke-width:3px;stroke-linecap:square;stroke:#000;"/><path d="M300.644,392.91c7.393,0.048 13.356,6.088 13.308,13.48c-0.047,7.392 -6.087,13.355 -13.479,13.308c-7.392,-0.048 -13.355,-6.088 -13.308,-13.48c0.047,-7.392 6.087,-13.355 13.479,-13.308Z" style="fill:#ebebeb;fill-opacity:0.231373;stroke-width:3px;stroke-linecap:square;stroke:#000;"/><path d="M131.21,459.64c17.018,0.109 30.747,14.014 30.638,31.033c-0.109,17.019 -14.015,30.747 -31.033,30.638c-17.019,-0.109 -30.747,-14.015 -30.638,-31.033c0.109,-17.019 14.014,-30.747 31.033,-30.638Z" style="fill:#ebebeb;fill-opacity:0.792157;stroke-width:3px;stroke-linecap:square;stroke:#000;"/><path d="M209.204,305.158c17.019,0.109 30.747,14.014 30.638,31.033c-0.109,17.019 -14.015,30.747 -31.033,30.638c-17.019,-0.109 -30.747,-14.014 -30.638,-31.033c0.109,-17.019 14.014,-30.747 31.033,-30.638Z" style="fill:#685273;fill-opacity:0.792157;"/><path d="M163.585,359.963c12.623,0.081 22.807,10.396 22.726,23.019c-0.081,12.624 -10.396,22.807 -23.019,22.726c-12.624,-0.081 -22.807,-10.395 -22.726,-23.019c0.081,-12.623 10.395,-22.806 23.019,-22.726Z" style="fill:#685273;"/><path d="M322.408,307.49c8.986,0.057 16.235,7.4 16.178,16.387c-0.058,8.986 -7.4,16.235 -16.387,16.178c-8.987,-0.058 -16.236,-7.401 -16.178,-16.387c0.057,-8.987 7.4,-16.236 16.387,-16.178Z" style="fill:#685273;"/><path d="M253.452,349.33c8.201,0.053 14.817,6.754 14.764,14.955c-0.052,8.201 -6.753,14.817 -14.955,14.764c-8.201,-0.052 -14.816,-6.753 -14.764,-14.954c0.053,-8.202 6.754,-14.817 14.955,-14.765Z" style="fill:#685273;"/><path d="M90.26,395.92c5.716,0.037 10.327,4.707 10.29,10.424c-0.037,5.716 -4.707,10.327 -10.423,10.29c-5.716,-0.036 -10.327,-4.707 -10.291,-10.423c0.037,-5.716 4.707,-10.327 10.424,-10.291Z" style="fill:#685273;"/><path d="M128.845,390.143c5.716,0.037 10.327,4.707 10.291,10.424c-0.037,5.716 -4.707,10.327 -10.424,10.29c-5.716,-0.036 -10.327,-4.707 -10.29,-10.423c0.037,-5.716 4.707,-10.327 10.423,-10.291Z" style="fill:#685273;"/><path d="M348.737,483.319l-127.869,-103.82l-12.753,15.707l127.869,103.819l12.753,-15.706Z" style="fill:#000;fill-opacity:0.498039;"/><path d="M319.585,28.792l33.568,27.124" style="fill:none;stroke-width:22px;stroke:#000;"/><path d="M501.212,173.891l41.133,31.52" style="fill:none;stroke-width:22px;stroke:#000;"/></g></svg>